<svg width="421" height="211" viewBox="0 0 421 211" fill="none" xmlns="http://www.w3.org/2000/svg">
<path d="M421 0.500031C421 28.1433 415.555 55.5159 404.977 81.0549C394.398 106.594 378.893 129.799 359.346 149.346C339.799 168.893 316.594 184.398 291.055 194.977C265.516 205.555 238.143 211 210.5 211C182.857 211 155.484 205.555 129.945 194.977C104.406 184.398 81.2007 168.893 61.654 149.346C42.1073 129.799 26.602 106.594 16.0234 81.0549C5.44474 55.5158 -2.41665e-06 28.1433 0 0.500015H83.812C83.812 17.1369 87.0888 33.6109 93.4555 48.9814C99.8222 64.3519 109.154 78.3179 120.918 90.082C132.682 101.846 146.648 111.178 162.019 117.545C177.389 123.911 193.863 127.188 210.5 127.188C227.137 127.188 243.611 123.911 258.981 117.545C274.352 111.178 288.318 101.846 300.082 90.082C311.846 78.3179 321.178 64.352 327.544 48.9814C333.911 33.6109 337.188 17.1369 337.188 0.500031H421Z" fill="white"/>
</svg>
