<svg width="421" height="211" viewBox="0 0 421 211" fill="none" xmlns="http://www.w3.org/2000/svg">
<path d="M1.84025e-05 210.5C2.08191e-05 182.857 5.44476 155.484 16.0234 129.945C26.602 104.406 42.1073 81.2007 61.6541 61.654C81.2008 42.1073 104.406 26.6019 129.945 16.0233C155.484 5.44471 182.857 -2.08191e-05 210.5 -1.84025e-05C238.143 -1.59858e-05 265.516 5.44472 291.055 16.0234C316.594 26.602 339.799 42.1073 359.346 61.654C378.893 81.2008 394.398 104.406 404.977 129.945C415.555 155.484 421 182.857 421 210.5L337.188 210.5C337.188 193.863 333.911 177.389 327.545 162.019C321.178 146.648 311.846 132.682 300.082 120.918C288.318 109.154 274.352 99.8222 258.981 93.4555C243.611 87.0888 227.137 83.8119 210.5 83.8119C193.863 83.8119 177.389 87.0888 162.019 93.4555C146.648 99.8222 132.682 109.154 120.918 120.918C109.154 132.682 99.8222 146.648 93.4555 162.019C87.0889 177.389 83.812 193.863 83.812 210.5L1.84025e-05 210.5Z" fill="white"/>
</svg>
